REM DIRINDEX 1\2,1\3,1\4,1\5\6,1\5\7,1\8
REM DIRNAME folder01,folder02,folder03,folder04,folder05,folder06,folder07,folder08
TITLE ""
FILE "078 Åy078ÅzUnit5 (0877 guideline_0888 infant).mp3" MP3
  TRACK 01 AUDIO
    TITLE "0:"
    INDEX 01 00:00:00
  TRACK 02 AUDIO
    TITLE "2:cjc115_3072"
    INDEX 01 00:00:07
  TRACK 03 AUDIO
    TITLE "0:"
    INDEX 01 00:01:40
  TRACK 04 AUDIO
    TITLE "3:cjc115_3073"
    INDEX 01 00:01:52
  TRACK 05 AUDIO
    TITLE "0:"
    INDEX 01 00:03:37
  TRACK 06 AUDIO
    TITLE "4:cjc115_3074"
    INDEX 01 00:03:47
  TRACK 07 AUDIO
    TITLE "0:"
    INDEX 01 00:08:58
  TRACK 08 AUDIO
    TITLE "2:cjc115_3075"
    INDEX 01 00:09:67
  TRACK 09 AUDIO
    TITLE "0:"
    INDEX 01 00:10:72
  TRACK 10 AUDIO
    TITLE "3:cjc115_3076"
    INDEX 01 00:11:05
  TRACK 11 AUDIO
    TITLE "0:"
    INDEX 01 00:12:28
  TRACK 12 AUDIO
    TITLE "4:cjc115_3077"
    INDEX 01 00:12:34
  TRACK 13 AUDIO
    TITLE "0:"
    INDEX 01 00:15:01
  TRACK 14 AUDIO
    TITLE "2:cjc115_3078"
    INDEX 01 00:16:12
  TRACK 15 AUDIO
    TITLE "0:"
    INDEX 01 00:17:41
  TRACK 16 AUDIO
    TITLE "3:cjc115_3079"
    INDEX 01 00:17:49
  TRACK 17 AUDIO
    TITLE "0:"
    INDEX 01 00:18:58
  TRACK 18 AUDIO
    TITLE "4:cjc115_3080"
    INDEX 01 00:19:01
  TRACK 19 AUDIO
    TITLE "0:"
    INDEX 01 00:22:58
  TRACK 20 AUDIO
    TITLE "2:cjc115_3081"
    INDEX 01 00:23:65
  TRACK 21 AUDIO
    TITLE "0:"
    INDEX 01 00:25:17
  TRACK 22 AUDIO
    TITLE "3:cjc115_3082"
    INDEX 01 00:25:19
  TRACK 23 AUDIO
    TITLE "0:"
    INDEX 01 00:26:56
  TRACK 24 AUDIO
    TITLE "4:cjc115_3083"
    INDEX 01 00:26:62
  TRACK 25 AUDIO
    TITLE "0:"
    INDEX 01 00:30:22
  TRACK 26 AUDIO
    TITLE "2:cjc115_3084"
    INDEX 01 00:31:31
  TRACK 27 AUDIO
    TITLE "0:"
    INDEX 01 00:32:70
  TRACK 28 AUDIO
    TITLE "3:cjc115_3085"
    INDEX 01 00:33:05
  TRACK 29 AUDIO
    TITLE "0:"
    INDEX 01 00:35:04
  TRACK 30 AUDIO
    TITLE "4:cjc115_3086"
    INDEX 01 00:35:12
  TRACK 31 AUDIO
    TITLE "0:"
    INDEX 01 00:38:47
  TRACK 32 AUDIO
    TITLE "2:cjc115_3087"
    INDEX 01 00:39:54
  TRACK 33 AUDIO
    TITLE "0:"
    INDEX 01 00:40:62
  TRACK 34 AUDIO
    TITLE "3:cjc115_3088"
    INDEX 01 00:40:72
  TRACK 35 AUDIO
    TITLE "0:"
    INDEX 01 00:42:21
  TRACK 36 AUDIO
    TITLE "4:cjc115_3089"
    INDEX 01 00:42:27
  TRACK 37 AUDIO
    TITLE "0:"
    INDEX 01 00:45:37
  TRACK 38 AUDIO
    TITLE "2:cjc115_3090"
    INDEX 01 00:46:47
  TRACK 39 AUDIO
    TITLE "0:"
    INDEX 01 00:48:00
  TRACK 40 AUDIO
    TITLE "3:cjc115_3091"
    INDEX 01 00:48:04
  TRACK 41 AUDIO
    TITLE "0:"
    INDEX 01 00:49:53
  TRACK 42 AUDIO
    TITLE "4:cjc115_3092"
    INDEX 01 00:49:59
  TRACK 43 AUDIO
    TITLE "0:"
    INDEX 01 00:52:41
  TRACK 44 AUDIO
    TITLE "2:cjc115_3093"
    INDEX 01 00:53:49
  TRACK 45 AUDIO
    TITLE "0:"
    INDEX 01 00:55:03
  TRACK 46 AUDIO
    TITLE "3:cjc115_3094"
    INDEX 01 00:55:10
  TRACK 47 AUDIO
    TITLE "0:"
    INDEX 01 00:56:29
  TRACK 48 AUDIO
    TITLE "4:cjc115_3095"
    INDEX 01 00:56:37
  TRACK 49 AUDIO
    TITLE "0:"
    INDEX 01 00:59:39
  TRACK 50 AUDIO
    TITLE "2:cjc115_3096"
    INDEX 01 01:00:49
  TRACK 51 AUDIO
    TITLE "0:"
    INDEX 01 01:01:62
  TRACK 52 AUDIO
    TITLE "3:cjc115_3097"
    INDEX 01 01:01:72
  TRACK 53 AUDIO
    TITLE "0:"
    INDEX 01 01:03:10
  TRACK 54 AUDIO
    TITLE "4:cjc115_3098"
    INDEX 01 01:03:22
  TRACK 55 AUDIO
    TITLE "0:"
    INDEX 01 01:07:59
  TRACK 56 AUDIO
    TITLE "2:cjc115_3099"
    INDEX 01 01:08:68
  TRACK 57 AUDIO
    TITLE "0:"
    INDEX 01 01:10:08
  TRACK 58 AUDIO
    TITLE "3:cjc115_3100"
    INDEX 01 01:10:18
  TRACK 59 AUDIO
    TITLE "0:"
    INDEX 01 01:12:24
  TRACK 60 AUDIO
    TITLE "4:cjc115_3101"
    INDEX 01 01:12:32
  TRACK 61 AUDIO
    TITLE "0:"
    INDEX 01 01:15:46
  TRACK 62 AUDIO
    TITLE "2:cjc115_3102"
    INDEX 01 01:16:54
  TRACK 63 AUDIO
    TITLE "0:"
    INDEX 01 01:18:02
  TRACK 64 AUDIO
    TITLE "3:cjc115_3103"
    INDEX 01 01:18:17
  TRACK 65 AUDIO
    TITLE "0:"
    INDEX 01 01:20:32
  TRACK 66 AUDIO
    TITLE "4:cjc115_3104"
    INDEX 01 01:20:38
  TRACK 67 AUDIO
    TITLE "0:"
    INDEX 01 01:24:65
  TRACK 68 AUDIO
    TITLE "2:cjc115_3105"
    INDEX 01 01:25:74
  TRACK 69 AUDIO
    TITLE "0:"
    INDEX 01 01:27:12
  TRACK 70 AUDIO
    TITLE "3:cjc115_3106"
    INDEX 01 01:27:20
  TRACK 71 AUDIO
    TITLE "0:"
    INDEX 01 01:29:09
  TRACK 72 AUDIO
    TITLE "4:cjc115_3107"
    INDEX 01 01:29:17
  TRACK 73 AUDIO
    TITLE "0:"
    INDEX 01 01:33:46
